PathFileType	3	(X/Y/Z)	F:\ViconData\AntennenMessung\Messung1\Session1\ID02.trc
DataRate	CameraRate	NumFrames	NumMarkers	Units	OrigDataRate	OrigDataStartFrame	OrigNumFrames
120.0	120.0	5	70	mm	120.0	463	924	
Frame#	Time	Ashort			Along			Atop			A4			Bshort			Blong			Btop			B4			Cshort			Clong			Ctop			C4			Dshort			Dlong			Dtop			D4			Eshort			Elong			Etop			E4			Fshort			Flong			Ftop			F4			Gshort			Glong			Gtop			G4			Hshort			Hlong			Htop			H4			I1			I2			I3			I4			I5			WandAshort			WandAlong			WandAtop			WandA4			WandA15			WandBshort			WandB4			WandB5			WandBtop			WandBlong			WandCshort			WandClong			WandCtop			WandC4			WandC5			Acenter			Aantenna			Bcenter			Bantenna			Ccenter			Cantenna			Dcenter			Dantenna			Ecenter			Eantenna			Fcenter			Fantenna			Gcenter			Gantenna			Hcenter			Hantenna			Icenter			Iantenna			
		X1	Y1	Z1	X2	Y2	Z2	X3	Y3	Z3	X4	Y4	Z4	X5	Y5	Z5	X6	Y6	Z6	X7	Y7	Z7	X8	Y8	Z8	X9	Y9	Z9	X10	Y10	Z10	X11	Y11	Z11	X12	Y12	Z12	X13	Y13	Z13	X14	Y14	Z14	X15	Y15	Z15	X16	Y16	Z16	X17	Y17	Z17	X18	Y18	Z18	X19	Y19	Z19	X20	Y20	Z20	X21	Y21	Z21	X22	Y22	Z22	X23	Y23	Z23	X24	Y24	Z24	X25	Y25	Z25	X26	Y26	Z26	X27	Y27	Z27	X28	Y28	Z28	X29	Y29	Z29	X30	Y30	Z30	X31	Y31	Z31	X32	Y32	Z32	X33	Y33	Z33	X34	Y34	Z34	X35	Y35	Z35	X36	Y36	Z36	X37	Y37	Z37	X38	Y38	Z38	X39	Y39	Z39	X40	Y40	Z40	X41	Y41	Z41	X42	Y42	Z42	X43	Y43	Z43	X44	Y44	Z44	X45	Y45	Z45	X46	Y46	Z46	X47	Y47	Z47	X48	Y48	Z48	X49	Y49	Z49	X50	Y50	Z50	X51	Y51	Z51	X52	Y52	Z52	X53	Y53	Z53	X54	Y54	Z54	X55	Y55	Z55	X56	Y56	Z56	X57	Y57	Z57	X58	Y58	Z58	X59	Y59	Z59	X60	Y60	Z60	X61	Y61	Z61	X62	Y62	Z62	X63	Y63	Z63	X64	Y64	Z64	X65	Y65	Z65	X66	Y66	Z66	X67	Y67	Z67	X68	Y68	Z68	X69	Y69	Z69	X70	Y70	Z70	
463	3.85	-1038.2324	214.40311	-1644.2062	-1109.1583	203.19522	-1599.635	-1063.7649	172.67723	-1625.3616	-1054.1119	262.05881	-1634.9474	-1353.0176	234.81938	1003.8312	-1281.2762	226.95772	1052.3542	-1323.0099	194.16351	1020.818	-1284.4918	287.89737	1052.6794	813.89142	187.68663	1209.47	892.3844	178.45021	1179.2561	844.6322	145.18413	1198.2584	860.60571	292.2742	1167.3203	1115.8184	209.75732	-1401.7051	1056.297	194.04573	-1460.1387	1094.9688	162.09512	-1423.9171	1069.8687	238.60585	-1425.9384	-1204.5555	1686.0048	-1563.1691	-1129.0835	1688.1912	-1606.0503	-1173.1256	1724.2964	-1581.8981	-1133.5264	1581.0946	-1603.4816	-1239.698	1699.2432	1119.2487	-1309.4124	1698.8636	1071.7703	-1270.3041	1736.1141	1096.6315	-1244.6918	1593.7139	1106.5	988.90118	1664.2794	1162.2841	957.62122	1700.3273	1183.7373	922.70819	1662.1266	1214.896	939.82666	1659.3427	1159.9108	999.25635	1668.5516	-1579.4904	1058.9243	1670.1597	-1518.6179	1025.0818	1708.0225	-1551.1393	1059.3058	1672.1749	-1585.5546	-542.05237	1144.1104	-298.22485	-545.74518	1145.1757	-213.93112	-544.15253	1181.5398	-260.92487	-575.78204	1142.423	-262.78241	-496.086	1146.172	-258.8764																																														-1069.1986	209.50972	-1624.7462	-1074.8898	248.08685	-1624.1019	-1321.7462	231.39256	1024.9816	-1320.4316	270.12891	1029.3141	848.36407	183.63017	1196.2004	852.12665	222.39275	1194.1256	1088.6543	202.58696	-1428.3726	1082.6803	240.89549	-1432.5878	-1171.9335	1686.9497	-1581.704	-1170.6891	1647.9701	-1581.5015	-1270.9912	1699.0728	1097.9366	-1271.7141	1660.1036	1099.3097	953.2403	1705.3757	1186.7418	973.09894	1733.506	1168.4298	1026.5952	1669.2885	-1551.5995	1028.1179	1630.3209	-1552.0626	-543.7077	1144.5879	-260.43832	-543.23846	1105.594	-259.92493
464	3.8583333	-1038.2119	214.30759	-1644.2699	-1109.1995	203.15335	-1599.626	-1063.6617	172.68134	-1625.4318	-1054.1268	262.02853	-1634.9419	-1353.0969	234.77922	1003.9539	-1281.338	227.03647	1052.38	-1323.0527	194.13158	1020.7801	-1284.4596	287.87289	1052.6931	813.92303	187.68282	1209.4916	892.24152	178.51099	1179.2429	844.31854	145.58281	1198.1567	860.51843	292.51758	1167.1979	1115.8236	209.76674	-1401.6995	1056.3085	194.05498	-1460.1359	1094.964	162.10249	-1423.9368	1069.9143	238.64821	-1425.929	-1204.4839	1685.9462	-1563.3218	-1129.0917	1688.2202	-1606.0715	-1173.0897	1724.3715	-1581.9664	-1133.517	1581.0737	-1603.4734	-1239.6787	1699.2112	1119.2358	-1309.4534	1698.8966	1071.7823	-1270.3358	1736.1599	1096.6458	-1244.6365	1593.8999	1106.458	988.83691	1664.2268	1162.2766	957.19531	1700.6406	1183.6635	922.60925	1662.1189	1214.8033	939.85059	1659.3744	1159.9147	999.25311	1668.543	-1579.4873	1058.9514	1670.1748	-1518.6282	1025.082	1708.0094	-1551.131	1059.3104	1672.1777	-1585.5681	-542.04565	1144.1075	-298.22305	-545.75281	1145.1627	-213.9352	-544.16302	1181.5663	-260.92743	-575.8125	1142.4475	-262.81232	-496.08548	1146.1838	-258.88541																																														-1069.0791	209.45743	-1624.8574	-1074.7622	248.03642	-1624.2551	-1321.8881	231.41179	1025.0149	-1320.678	270.14392	1029.4147	848.06543	183.6844	1196.3049	851.87775	222.45187	1194.4208	1088.644	202.59143	-1428.3864	1082.6646	240.89967	-1432.5962	-1171.8733	1686.9298	-1581.8129	-1170.6071	1647.9507	-1581.6531	-1271.0306	1699.0698	1097.9133	-1271.761	1660.0994	1099.2456	953.13165	1705.317	1186.41	972.96057	1733.3807	1167.9645	1026.6134	1669.2908	-1551.595	1028.1547	1630.324	-1552.0619	-543.70728	1144.5804	-260.44443	-543.22675	1105.5868	-259.93521
465	3.8666667	-1038.2542	214.41553	-1644.2205	-1109.1962	203.19266	-1599.6459	-1063.6006	173.15265	-1625.6348	-1054.007	261.97083	-1634.9661	-1353.0195	234.82755	1003.8557	-1281.3483	226.94716	1052.3571	-1323.0203	194.13304	1020.8044	-1284.619	287.81293	1052.8187	813.93457	187.63631	1209.4506	892.41052	178.43637	1179.1718	844.5332	145.30687	1198.1848	860.65045	292.30142	1167.25	1115.8082	209.74962	-1401.6967	1056.2983	194.05179	-1460.1492	1095.0194	162.15639	-1423.9408	1069.9082	238.63629	-1425.9167	-1204.4918	1685.946	-1563.3245	-1129.1095	1688.2137	-1606.0526	-1173.1321	1724.3051	-1581.8947	-1133.5126	1581.0752	-1603.4799	-1239.6881	1699.2267	1119.2529	-1309.4529	1698.9435	1071.8082	-1270.3358	1736.1406	1096.6432	-1244.6169	1593.9703	1106.4149	988.88037	1664.2875	1162.2701	957.49371	1700.3799	1183.7014	922.19757	1662.1787	1214.7745	939.80878	1659.3372	1159.879	999.26306	1668.5774	-1579.5088	1058.812	1669.9863	-1518.6476	1025.0831	1708.017	-1551.1265	1059.3094	1672.1838	-1585.5696	-542.04346	1144.108	-298.23062	-545.74554	1145.1635	-213.9288	-544.14838	1181.5458	-260.93243	-575.76239	1142.3892	-262.77209	-496.07907	1146.1665	-258.8793																																														-1068.9283	209.56293	-1624.9469	-1074.5741	248.14523	-1624.2183	-1321.7664	231.3912	1025.0052	-1320.4629	270.12399	1029.3724	848.26038	183.61218	1196.2064	852.03247	222.37766	1194.2042	1088.6783	202.59315	-1428.3445	1082.671	240.9012	-1432.5165	-1171.9399	1686.9252	-1581.7754	-1170.697	1647.9452	-1581.6512	-1271.0546	1699.0992	1097.9215	-1271.811	1660.1298	1099.2664	952.98065	1705.5693	1186.7828	972.95123	1733.7191	1168.6232	1026.5283	1669.2225	-1551.6425	1027.9802	1630.2529	-1552.1609	-543.70251	1144.5809	-260.45013	-543.23218	1105.5872	-259.94135
466	3.875	-1038.2277	214.32013	-1644.2732	-1109.1769	203.15807	-1599.6199	-1063.6519	172.67526	-1625.4279	-1053.994	261.93625	-1634.9812	-1352.993	234.80896	1003.9283	-1281.2257	227.03716	1052.3783	-1322.9915	194.15907	1020.7612	-1284.514	287.90781	1052.702	813.92792	187.59669	1209.457	892.42114	178.48239	1179.2382	844.56799	145.28238	1198.2087	860.50812	292.29556	1167.312	1115.8195	209.74489	-1401.6941	1056.2943	194.05963	-1460.1622	1094.941	162.06319	-1423.9103	1069.8955	238.64505	-1425.9323	-1204.4841	1685.9402	-1563.3119	-1129.083	1688.209	-1606.0774	-1173.137	1724.3105	-1581.9017	-1133.5082	1581.0819	-1603.4901	-1239.696	1699.2445	1119.2501	-1309.4016	1698.8347	1071.7594	-1270.3474	1736.1655	1096.6503	-1246.5087	1592.5009	1108.8037	988.89465	1664.2928	1162.2849	957.5036	1700.4246	1183.6761	922.76788	1661.9999	1214.8533	939.82922	1659.3639	1159.8774	999.24701	1668.5652	-1579.5214	1058.7905	1669.9917	-1518.6539	1025.0834	1708.0093	-1551.1254	1059.3052	1672.1873	-1585.5797	-542.04865	1144.115	-298.22189	-545.7547	1145.1616	-213.93813	-544.14923	1181.5381	-260.92047	-575.72333	1142.49	-262.77298	-496.0928	1146.181	-258.86258																																														-1069.0798	209.46631	-1624.8556	-1074.7715	248.04408	-1624.2557	-1321.8053	231.43161	1024.9829	-1320.5726	270.16443	1029.3702	848.26031	183.61014	1196.2395	851.9953	222.37976	1194.2476	1088.6522	202.58614	-1428.3788	1082.7067	240.89801	-1432.6038	-1171.9377	1686.9193	-1581.7712	-1170.6877	1647.9397	-1581.6353	-1270.9973	1699.0604	1097.9243	-1271.6801	1660.0894	1099.2626	953.28961	1705.2748	1186.5476	973.11359	1733.3821	1168.1631	1026.5302	1669.2188	-1551.6316	1027.9836	1630.2491	-1552.14	-543.70984	1144.5841	-260.44217	-543.24615	1105.5901	-259.9375
467	3.8833333	-1038.2467	214.42455	-1644.2432	-1109.2897	203.38733	-1599.5532	-1063.6329	172.67792	-1625.4662	-1054.0204	261.96091	-1635.0056	-1353.0242	234.96471	1003.8846	-1281.3087	227.04668	1052.3481	-1323.0304	194.21259	1020.7617	-1284.6923	287.80408	1052.8438	813.97632	187.59642	1209.3989	892.19946	178.51076	1179.1959	844.30042	145.53453	1198.156	860.62994	292.20108	1167.2649	1115.8142	209.74248	-1401.7003	1056.2981	194.09001	-1460.1595	1095.0244	162.14857	-1423.897	1069.9016	238.61972	-1425.9417	-1204.5374	1686.0005	-1563.184	-1129.1077	1688.1915	-1606.0442	-1173.1392	1724.3025	-1581.899	-1133.5105	1581.0648	-1603.4684	-1239.6703	1699.2017	1119.2374	-1309.3788	1698.7695	1071.7394	-1270.2917	1736.0945	1096.6172	-1244.9905	1593.3	1106.9507	988.90417	1664.2866	1162.2646	957.61871	1700.3204	1183.7883	922.2464	1662.1595	1214.78	939.78656	1659.379	1159.9092	999.25983	1668.5532	-1579.4948	1058.7765	1669.9819	-1518.65	1025.0797	1708.0089	-1551.1333	1059.3126	1672.2002	-1585.5906	-542.05304	1144.1018	-298.22351	-545.75244	1145.162	-213.92941	-544.16431	1181.5492	-260.92548	-575.79315	1142.5548	-262.76849	-496.03128	1146.1284	-258.54904																																														-1069.0131	209.64467	-1624.8893	-1074.6294	248.23346	-1624.2869	-1321.7765	231.51469	1025.001	-1320.4749	270.24368	1029.4022	847.99615	183.64497	1196.2633	851.75598	222.41556	1194.338	1088.7197	202.61671	-1428.3136	1082.7507	240.92973	-1432.4951	-1171.9435	1686.9471	-1581.7041	-1170.6957	1647.9675	-1581.501	-1270.9515	1699.0077	1097.923	-1271.6448	1660.038	1099.2949	953.06824	1705.5615	1186.9187	973.07477	1733.7339	1168.8341	1026.5176	1669.2074	-1551.6285	1027.9618	1630.2374	-1552.1262	-543.71118	1144.577	-260.44055	-543.2334	1105.5833	-259.92914
